# AST/ASF file generated using VICON BodyLanguage
# -----------------------------------------------
:version 1.10
:name VICON
:units
  mass 1.0
  length 0.45
  angle deg
:documentation
   .ast/.asf automatically generated from VICON data using
   VICON BodyBuilder and BodyLanguage model FoxedUp or BRILLIANT.MOD
:root
   order TX TY TZ RX RY RZ
   axis XYZ
   position 0 0 0  
   orientation 0 -0 0 
:bonedata
  begin
     id 1 
     name lhipjoint
     direction 0.432694 -0.693742 0.575759 
     length 2.19277 
     axis 0 -0 0  XYZ
  end
  begin
     id 2 
     name lfemur
     direction 0.34202 -0.939693 0  
     length 6.69022  
     axis 0 -0 20  XYZ
    dof rx ry rz
    limits (-160.0 20.0)
           (-70.0 70.0)
           (-60.0 70.0)
  end
  begin
     id 3 
     name ltibia
     direction 0.34202 -0.939693 0   
     length 6.50337   
     axis 0 -0 20   XYZ
    dof rx
    limits (-10.0 170.0)
  end
  begin
     id 4 
     name lfoot
     direction 0.158999 -0.435969 0.885805   
     length 2.70564   
     axis -90 -1.13533e-015 20   XYZ
    dof rx rz
    limits (-45.0 90.0)
           (-70.0 20.0)
  end
  begin
     id 5 
     name ltoes
     direction -0.00592919 0.00964381 0.999936   
     length 1.29929   
     axis -90 -1.13533e-015 20   XYZ
    dof rx
    limits (-90.0 20.0)
  end
  begin
     id 6 
     name rhipjoint
     direction -0.414359 -0.700339 0.581234   
     length 2.17212  
     axis 0 -0 0  XYZ 
  end
  begin
     id 7 
     name rfemur
     direction -0.34202 -0.939693 0   
     length 7.17659   
     axis 0 -0 -20   XYZ
    dof rx ry rz
    limits (-160.0 20.0)
           (-70.0 70.0)
           (-70.0 60.0)
  end
  begin
     id 8 
     name rtibia
     direction -0.34202 -0.939693 0   
     length 6.36669   
     axis 0 -0 -20   XYZ
    dof rx
    limits (-10.0 170.0)
 end
 begin
     id 9 
     name rfoot
     direction -0.137064 -0.37658 0.916188   
     length 2.22351  
     axis -90 1.13533e-015 -20   XYZ
    dof rx rz
    limits (-45.0 90.0)
           (-20.0 70.0)
  end
  begin
     id 10 
     name rtoes
     direction -0.000784077 -0.00289101 0.999996   
     length 1.09522   
     axis -90 1.13533e-015 -20   XYZ
    dof rx
    limits (-90.0 20.0)
  end
  begin
     id 11 
     name lowerback
     direction -0.0176242 0.984912 -0.172157   
     length 1.65301   
     axis 0 -0 0   XYZ
    dof rx ry rz
    limits (-20.0 45.0)
           (-30.0 30.0)
           (-30.0 30.0)
  end
  begin
     id 12 
     name upperback
     direction -0.00218128 0.998776 -0.0494072   
     length 1.67776   
     axis 0 -0 0   XYZ
    dof rx ry rz
    limits (-20.0 45.0)
           (-30.0 30.0)
           (-30.0 30.0)
  end
  begin
     id 13 
     name thorax
     direction 0.00544186 0.999658 0.0255711   
     length 1.72293   
     axis 0 -0 0   XYZ
    dof rx ry rz
    limits (-20.0 45.0)
           (-30.0 30.0)
           (-30.0 30.0)
  end
  begin
     id 14 
     name lowerneck
     direction -0.105325 0.983841 0.144785   
     length 2.14226   
     axis 0 -0 0   XYZ
    dof rx ry rz
    limits (-20.0 45.0)
           (-30.0 30.0)
           (-30.0 30.0)
  end
  begin
     id 15 
     name upperneck
     direction 0.0547957 0.988053 -0.144041   
     length 2.17508   
     axis 0 -0 0   XYZ
    dof rx ry rz
    limits (-20.0 45.0)
           (-30.0 30.0)
           (-30.0 30.0)
  end
  begin
     id 16
     name head
     direction 0.0247488 0.997534 -0.0656813  
     length 2.20048  
     axis 0 -0 0   XYZ
    dof rx ry rz
    limits (-20.0 45.0)
           (-30.0 30.0)
           (-30.0 30.0)
  end
  begin
     id 17 
     name lclavicle
     direction 0.820559 0.567247 -0.0701026  
     length 4.09615  
     axis 0 -0 0   XYZ
    dof ry rz
    limits (-20.0 10.0)
           (0.0 20.0)
  end
  begin
     id 18 
     name lhumerus
     direction 0.999977 -0.0067566 -9.96392e-005   
     length 4.59333   
     axis -180 -30 -90   XYZ
    dof rx ry rz
    limits (-60.0 90.0)
           (-90.0 90.0)
           (-90.0 90.0)
  end
  begin
     id 19
     name lradius
     direction 1 -4.48982e-011 -2.53425e-027   
     length 2.81151   
     axis -180 -30 -90   XYZ
    dof rx
    limits (-10.0 170.0)
  end
  begin
     id 20
     name lwrist
     direction 1 -4.48939e-011 -7.39254e-028   
     length 1.40576   
     axis 2.56395e-016 90 90   XYZ
    dof ry
    limits (-180.0 0.0)
 end
  begin
     id 21 
     name lhand
     direction 1 -4.48939e-011 -1.47851e-027   
     length 0.895651   
     axis 9.43423e-016 90 90   XYZ
    dof rx rz
    limits (-90.0 90.0)
           (-45.0 45.0)
  end
  begin
     id 22 
     name lfingers
     direction 1 -4.48978e-011 -2.95702e-027   
     length 0.722097   
     axis 1.88685e-015 90 90   XYZ
    dof rx
    limits (0.0 90.0)
  end
  begin
     id 23
     name lthumb
     direction 0.707107 -6.34931e-011 0.707107   
     length 1.03679   
     axis -90 45 -9.86935e-015   XYZ
    dof rx rz
    limits (-45.0 45.0)
           (-45.0 45.0)
  end
  begin
     id 24 
     name rclavicle
     direction -0.831414 0.553102 -0.0531864   
     length 4.24872  
     axis 0 -0 0   XYZ 
    dof ry rz
    limits (-10.0 20.0)
           (-20.0 0.0)
  end
  begin
     id 25 
     name rhumerus
     direction -0.999916 -0.000939607 0.0129331  
     length 4.74834   
     axis -180 30 90   XYZ
    dof rx ry rz
    limits (-90.0 60.0)
           (-90.0 90.0)
           (-90.0 90.0)
  end
  begin
     id 26 
     name rradius
     direction -1 -4.48956e-011 -1.31752e-027   
     length 2.79907   
     axis -180 30 90   XYZ
    dof rx
    limits (-10.0 170.0)
  end
  begin
     id 27 
     name rwrist
     direction -1 -4.4897e-011 -7.39254e-028   
     length 1.39954   
     axis 2.56395e-016 -90 -90   XYZ
    dof ry
    limits (-180.0 0.0)
  end
  begin
     id 28
     name rhand
     direction -0.999997 -0.00250697 0.000800838   
     length 0.953304   
     axis 9.43423e-016 -90 -90   XYZ
    dof rx rz
    limits (-90.0 90.0)
           (-45.0 45.0)
  end
  begin
     id 29
     name rfingers
     direction -1 -4.48954e-011 -2.95702e-027   
     length 0.763342   
     axis 1.88685e-015 -90 -90   XYZ
    dof rx
    limits (0.0 90.0)
  end
  begin
     id 30
     name rthumb
     direction -0.709701 -0.00217037 0.7045   
     length 1.10115   
     axis -90 -45 9.86935e-015   XYZ
    dof rx rz
    limits (-45.0 45.0)
           (-45.0 45.0)
  end
:hierarchy
  begin
    root lhipjoint rhipjoint lowerback
    lhipjoint lfemur
    lfemur ltibia
    ltibia lfoot
    lfoot ltoes
    rhipjoint rfemur
    rfemur rtibia
    rtibia rfoot
    rfoot rtoes
    lowerback upperback
    upperback thorax
    thorax lowerneck lclavicle rclavicle
    lowerneck upperneck
    upperneck head
    lclavicle lhumerus
    lhumerus lradius
    lradius lwrist
    lwrist lhand lthumb
    lhand lfingers
    rclavicle rhumerus
    rhumerus rradius
    rradius rwrist
    rwrist rhand rthumb
    rhand rfingers
  end

#!OML:ASF G:\ViconDB\ViconDB\414\test\team2\shane.ASF
:FULLY-SPECIFIED
:DEGREES
98
root 0.978687 15.5286 -26.4921 63.7002 48.8264 -63.8264
lowerback 19.3245 3.83333 -8.21192
upperback 6.71789 2.95234 -5.84101
thorax -3.60316 1.33839 -2.26447
lowerneck -28.8819 -3.83885 -9.90565
upperneck 20.7443 -0.958148 -0.152246
head 11.6102 -1.24983 1.36473
rclavicle 7.79236e-014 4.13472e-014
rhumerus 86.783 -19.2854 -55.2013
rradius 25.8899
rwrist 41.0543
rhand -44.3436 -29.4659
rfingers 7.12502
rthumb -17.152 -58.7288
lclavicle 7.79236e-014 4.13472e-014
lhumerus 64.033 20.421 22.5331
lradius 27.701
lwrist -12.8546
lhand -72.1102 70.2064
lfingers 7.12502
lthumb -43.5838 265.757
rfemur 18.4332 -7.81611 -1.91113
rtibia 52.011
rfoot 1.41556 -1.19145
rtoes -9.81635
lfemur -57.558 14.6641 47.987
ltibia 68.3732
lfoot -21.1317 6.21689
ltoes 1.78791
99
root 1.09119 15.5628 -26.2219 62.6939 50.5323 -65.4769
lowerback 19.2226 3.65493 -8.20672
upperback 6.17643 2.71211 -5.79441
thorax -4.13502 1.24988 -2.1767
lowerneck -28.5944 -3.54983 -9.4165
upperneck 21.1653 -0.794831 -0.151774
head 11.7068 -1.15046 1.32111
rclavicle -4.29375e-014 -1.90833e-014
rhumerus 84.7616 -18.1029 -53.0943
rradius 25.5818
rwrist 40.9226
rhand -44.2407 -27.8151
rfingers 7.12502
rthumb -17.0529 -57.0866
lclavicle -4.29375e-014 -1.90833e-014
lhumerus 63.5833 20.0035 22.4369
lradius 27.9808
lwrist -14.07
lhand -72.6544 72.7347
lfingers 7.12502
lthumb -44.0917 263.417
rfemur 19.3255 -6.42172 -3.11792
rtibia 53.4775
rfoot 1.27889 -3.07144
rtoes -8.66255
lfemur -54.9121 15.3495 47.5109
ltibia 70.8159
lfoot -19.7394 4.67673
ltoes 2.59079
100
root 1.19897 15.5901 -25.923 62.1292 52.4427 -67.0367
lowerback 18.6536 3.36319 -8.03658
upperback 5.6176 2.41836 -5.78014
thorax -4.43121 1.13481 -2.17725
lowerneck -28.6227 -3.35712 -8.88604
upperneck 21.6011 -0.752406 -0.109478
head 11.8715 -1.09572 1.26201
rclavicle 1.7175e-013 -3.49861e-014
rhumerus 82.9881 -17.1085 -51.6009
rradius 25.6626
rwrist 41.5845
rhand -44.0045 -26.4907
rfingers 7.12502
rthumb -16.8255 -55.7817
lclavicle 1.7175e-013 -3.49861e-014
lhumerus 63.484 19.8604 23.05
lradius 28.357
lwrist -17.0105
lhand -72.3085 75.565
lfingers 7.12502
lthumb -43.769 260.466
rfemur 19.8574 -5.31036 -3.78209
rtibia 54.4001
rfoot 1.1388 -4.87454
rtoes -7.33577
lfemur -52.259 15.8077 47.3241
ltibia 72.8004
lfoot -19.1216 3.37402
ltoes 2.14704
101
root 1.31037 15.6122 -25.6148 62.0063 54.619 -68.1801
lowerback 18.118 3.00796 -7.79957
upperback 5.01742 2.04681 -5.77584
thorax -4.78274 0.983963 -2.21435
lowerneck -28.456 -3.11694 -8.44846
upperneck 21.8496 -0.806679 0.506272
head 11.9317 -1.00694 1.41869
rclavicle -3.18055e-014 4.13472e-014
rhumerus 81.7799 -16.3438 -51.2681
rradius 25.7544
rwrist 41.6958
rhand -43.9968 -25.4623
rfingers 7.12502
rthumb -16.8181 -54.7539
lclavicle -3.18055e-014 4.13472e-014
lhumerus 62.452 19.174 21.7139
lradius 29.7586
lwrist -17.803
lhand -72.1858 76.1228
lfingers 7.12502
lthumb -43.6544 259.867
rfemur 20.2464 -4.7319 -4.17573
rtibia 55.118
rfoot 0.681209 -6.25946
rtoes -6.23849
lfemur -49.8024 16.0611 47.1156
ltibia 74.2843
lfoot -18.8074 2.04568
ltoes 1.62293
102
root 1.41552 15.6196 -25.2737 62.2908 56.8948 -69.2077
lowerback 17.1658 2.66745 -7.7281
upperback 4.34114 1.70858 -5.72111
thorax -4.99798 0.847645 -2.09897
lowerneck -27.9275 -3.02204 -7.7242
upperneck 21.8595 -1.15139 0.901434
head 11.8459 -1.04365 1.39331
rclavicle -2.83069e-013 3.65764e-014
rhumerus 80.3447 -15.6545 -50.2335
rradius 26.1182
rwrist 39.9285
rhand -44.1674 -26.4187
rfingers 7.12502
rthumb -16.9824 -55.6963
lclavicle -2.83069e-013 3.65764e-014
lhumerus 61.94 18.391 20.3333
lradius 30.3943
lwrist -18.5314
lhand -72.2354 79.7702
lfingers 7.12502
lthumb -43.7007 256.236
rfemur 20.2883 -4.55814 -4.27179
rtibia 55.6414
rfoot 0.29374 -7.29359
rtoes -4.84481
lfemur -47.1803 15.929 47.0003
ltibia 75.1965
lfoot -19.0649 0.596318
ltoes 0.799511
103
root 1.52645 15.6072 -24.934 62.8826 59.2854 -69.8474
lowerback 16.3387 2.33871 -7.55093
upperback 3.69903 1.38758 -5.6115
thorax -5.23579 0.716312 -1.99731
lowerneck -27.5876 -3.09381 -7.5203
upperneck 22.0424 -1.67066 1.95234
head 11.8805 -1.11816 1.66842
rclavicle -8.42847e-014 7.4743e-014
rhumerus 78.9343 -15.1436 -48.9728
rradius 26.9409
rwrist 35.6775
rhand -44.2208 -28.5802
rfingers 7.12502
rthumb -17.0337 -57.8534
lclavicle -8.42847e-014 7.4743e-014
lhumerus 61.8168 17.5885 19.9352
lradius 31.2673
lwrist -19.7116
lhand -72.4437 82.7019
lfingers 7.12502
lthumb -43.8951 253.376
rfemur 20.4578 -4.55306 -4.23036
rtibia 55.8505
rfoot -0.0554487 -7.78396
rtoes -5.46961
lfemur -44.5458 15.0329 46.7766
ltibia 75.6604
lfoot -19.4509 -0.571336
ltoes -0.0786261
104
root 1.6328 15.5856 -24.604 64.2854 61.5239 -69.6529
lowerback 15.5457 2.03821 -7.73248
upperback 3.02026 1.03773 -5.43326
thorax -5.53198 0.577428 -1.6244
lowerneck -27.113 -3.29116 -7.50854
upperneck 22.24 -2.2171 2.75477
head 11.9066 -1.25524 1.87688
rclavicle -1.35174e-013 1.59028e-014
rhumerus 78.5543 -14.726 -50.114
rradius 27.4796
rwrist 32.8956
rhand -44.4815 -30.7763
rfingers 7.12502
rthumb -17.2847 -60.0277
lclavicle -1.35174e-013 1.59028e-014
lhumerus 61.6546 16.5375 19.1973
lradius 31.9561
lwrist -19.961
lhand -73.0305 88.1025
lfingers 7.12502
lthumb -44.4422 248.182
rfemur 20.7289 -4.88805 -4.56589
rtibia 55.7953
rfoot -0.263571 -7.84449
rtoes -5.31147
lfemur -42.2132 14.0118 46.0306
ltibia 75.7629
lfoot -19.5462 -1.79382
ltoes -0.883213
105
root 1.73493 15.5465 -24.2792 65.859 64.1338 -69.2635
lowerback 14.8167 1.74413 -7.44252
upperback 2.30953 0.772015 -4.97514
thorax -5.88939 0.473091 -1.23902
lowerneck -26.3085 -3.78618 -7.64186
upperneck 22.4457 -2.94345 2.91221
head 11.8867 -1.57203 1.83486
rclavicle 1.31993e-013 1.90833e-014
rhumerus 78.1188 -14.466 -51.1014
rradius 27.7937
rwrist 30.455
rhand -46.3346 -34.3632
rfingers 7.12502
rthumb -19.0675 -63.4485
lclavicle 1.31993e-013 1.90833e-014
lhumerus 61.7712 15.3746 19.266
lradius 32.4179
lwrist -21.0959
lhand -72.7834 263.655
lfingers 7.12502
lthumb -44.212 239.851
rfemur 21.1228 -5.51631 -4.54159
rtibia 55.4575
rfoot -0.411219 -7.54385
rtoes -5.41848
lfemur -39.8994 12.7193 45.5144
ltibia 75.5603
lfoot -19.506 -2.9698
ltoes -1.52492
106
root 1.83759 15.5074 -23.9782 67.7197 66.818 -68.3922
lowerback 14.2449 1.44905 -6.9927
upperback 1.68036 0.520504 -4.40408
thorax -6.23945 0.369809 -0.831499
lowerneck -25.9336 -4.06225 -8.24442
upperneck 22.939 -3.16236 3.12109
head 12.0401 -1.69959 1.98065
rclavicle 8.18993e-014 -1.74931e-014
rhumerus 77.4846 -14.2107 -50.8771
rradius 27.6428
rwrist 27.9725
rhand -49.2798 -40.8797
rfingers 7.12502
rthumb -21.8977 -69.6605
lclavicle 8.18993e-014 -1.74931e-014
lhumerus 61.7594 14.1761 19.3837
lradius 33.0507
lwrist -21.516
lhand -72.7725 257.211
lfingers 7.12502
lthumb -44.2018 233.404
rfemur 21.7917 -6.32804 -4.59736
rtibia 54.8461
rfoot -0.474452 -7.41646
rtoes -6.33045
lfemur -37.7195 11.367 44.9404
ltibia 75.2225
lfoot -19.1043 -3.99345
ltoes -1.58575
